<svg xmlns="http://www.w3.org/2000/svg" viewBox="0 0 24 24">
  <rect x="2" y="4" width="20" height="18" rx="2" fill="#7A7874"/>
  <rect x="3" y="9" width="18" height="12" rx="1" fill="#FCFBF9"/>
  <rect x="7" y="2" width="2" height="4" rx="1" fill="#7A7874"/>
  <rect x="15" y="2" width="2" height="4" rx="1" fill="#7A7874"/>
  <rect x="4" y="11" width="3" height="3" rx="0.5" fill="#DEDBD6" opacity="0.9"/>
  <rect x="8" y="11" width="3" height="3" rx="0.5" fill="#DEDBD6" opacity="0.7"/>
  <rect x="12" y="11" width="3" height="3" rx="0.5" fill="#DEDBD6" opacity="0.5"/>
  <rect x="16" y="11" width="3" height="3" rx="0.5" fill="#DEDBD6" opacity="0.3"/>
  <path d="M6 16 L10 16 L10 19 L8 17 L6 19 Z" fill="#C4A99A"/>
  <rect x="12" y="16" width="6" height="1" rx="0.3" fill="#7A7874"/>
  <rect x="13" y="18" width="4" height="1" rx="0.3" fill="#7A7874"/>
</svg>