<svg xmlns="http://www.w3.org/2000/svg" viewBox="0 0 32 32">
  <!-- 背景光晕 -->
  <circle cx="16" cy="16" r="14" fill="#FEF3C7" opacity="0.5"/>
  <!-- 保险箱主体 -->
  <rect x="6" y="8" width="20" height="18" rx="3" fill="#1E40AF" opacity="0.15"/>
  <rect x="6" y="8" width="20" height="18" rx="3" fill="none" stroke="#1E40AF" stroke-width="1.6"/>
  <!-- 顶部加强条 -->
  <line x1="6" y1="12" x2="26" y2="12" stroke="#1E40AF" stroke-width="1.6" opacity="0.6"/>
  <!-- 锁芯 -->
  <circle cx="16" cy="18" r="4" fill="#F59E0B" opacity="0.2"/>
  <circle cx="16" cy="18" r="4" fill="none" stroke="#F59E0B" stroke-width="1.4"/>
  <circle cx="16" cy="18" r="1.2" fill="#F59E0B"/>
  <!-- 锁芯横杆 -->
  <rect x="16" y="13" width="1.5" height="2" rx="0.5" fill="#F59E0B"/>
  <!-- 底座 -->
  <rect x="8" y="26" width="16" height="1.2" rx="0.6" fill="#1E40AF" opacity="0.2"/>
  <!-- 装饰线条 -->
  <line x1="10" y1="22.5" x2="14" y2="22.5" stroke="#93C5FD" stroke-width="0.8" stroke-linecap="round"/>
  <line x1="18" y1="22.5" x2="22" y2="22.5" stroke="#93C5FD" stroke-width="0.8" stroke-linecap="round"/>
  <!-- 盾牌装饰符号 -->
  <path d="M16 5.5L12.5 7.5V10.5C12.5 13.2 14 15.5 16 16.5C18 15.5 19.5 13.2 19.5 10.5V7.5L16 5.5Z" fill="#F59E0B" opacity="0.25"/>
  <path d="M16 5.5L12.5 7.5V10.5C12.5 13.2 14 15.5 16 16.5C18 15.5 19.5 13.2 19.5 10.5V7.5L16 5.5Z" fill="none" stroke="#F59E0B" stroke-width="1.2"/>
  <path d="M14.5 9L15.5 10L17.5 8" fill="none" stroke="#F59E0B" stroke-width="1.4" stroke-linecap="round" stroke-linejoin="round"/>
</svg>
